<mxfile host="Electron" agent="Mozilla/5.0 (Windows NT 10.0; Win64; x64) AppleWebKit/537.36 (KHTML, like Gecko) draw.io/24.7.17 Chrome/128.0.6613.36 Electron/32.0.1 Safari/537.36" version="24.7.17">
  <diagram name="Trang-1" id="P8FKZUHweQ3pR0rkzEx5">
    <mxGraphModel dx="500" dy="300" grid="1" gridSize="10" guides="1" tooltips="1" connect="1" arrows="1" fold="1" page="1" pageScale="1" pageWidth="827" pageHeight="1169" math="0" shadow="0">
      <root>
        <mxCell id="0" />
        <mxCell id="1" parent="0" />
        <mxCell id="mCWx58aMdZrO-X7KgWpq-10" value="&lt;font face=&quot;Times New Roman&quot;&gt;&lt;span style=&quot;font-size: 13px;&quot;&gt;Tra cứu lịch sử&lt;/span&gt;&lt;/font&gt;&lt;div&gt;&lt;font face=&quot;Times New Roman&quot;&gt;&lt;span style=&quot;font-size: 13px;&quot;&gt;giải đấu&lt;/span&gt;&lt;/font&gt;&lt;/div&gt;" style="shape=ellipse;html=1;dashed=0;whiteSpace=wrap;perimeter=ellipsePerimeter;fillColor=#0050ef;strokeColor=#001DBC;fontColor=#ffffff;" parent="1" vertex="1">
          <mxGeometry x="260" y="190" width="120" height="40" as="geometry" />
        </mxCell>
        <mxCell id="mCWx58aMdZrO-X7KgWpq-11" value="&lt;font style=&quot;font-size: 13px;&quot; face=&quot;Times New Roman&quot;&gt;Người dùng&lt;/font&gt;" style="html=1;dashed=0;whiteSpace=wrap;fillColor=#0050ef;strokeColor=#001DBC;fontColor=#ffffff;" parent="1" vertex="1">
          <mxGeometry x="270" y="130" width="100" height="30" as="geometry" />
        </mxCell>
        <mxCell id="mCWx58aMdZrO-X7KgWpq-12" value="&lt;font style=&quot;font-size: 13px;&quot; face=&quot;Times New Roman&quot;&gt;Thiết bị nhập&lt;/font&gt;" style="html=1;dashed=0;whiteSpace=wrap;fillColor=#0050ef;strokeColor=#001DBC;fontColor=#ffffff;" parent="1" vertex="1">
          <mxGeometry x="120" y="194" width="100" height="30" as="geometry" />
        </mxCell>
        <mxCell id="mCWx58aMdZrO-X7KgWpq-13" value="&lt;font style=&quot;font-size: 13px;&quot; face=&quot;Times New Roman&quot;&gt;Thiết bị xuất&lt;/font&gt;" style="html=1;dashed=0;whiteSpace=wrap;fillColor=#0050ef;strokeColor=#001DBC;fontColor=#ffffff;" parent="1" vertex="1">
          <mxGeometry x="417" y="194" width="100" height="30" as="geometry" />
        </mxCell>
        <mxCell id="mCWx58aMdZrO-X7KgWpq-14" value="&lt;font face=&quot;Times New Roman&quot; style=&quot;font-size: 13px;&quot;&gt;Bộ nhớ phụ&lt;/font&gt;" style="html=1;dashed=0;whiteSpace=wrap;shape=partialRectangle;right=0;left=0;" parent="1" vertex="1">
          <mxGeometry x="270" y="260" width="100" height="30" as="geometry" />
        </mxCell>
        <mxCell id="mCWx58aMdZrO-X7KgWpq-18" value="" style="endArrow=classic;html=1;rounded=0;shape=flexArrow;endWidth=4.136289886425095;endSize=2.0897269180754225;width=2.964889466840052;strokeWidth=0.5;fillColor=#f0a30a;strokeColor=#c97c02;" parent="1" edge="1">
          <mxGeometry width="50" height="50" relative="1" as="geometry">
            <mxPoint x="384" y="209.92" as="sourcePoint" />
            <mxPoint x="414" y="209.92" as="targetPoint" />
          </mxGeometry>
        </mxCell>
        <mxCell id="mCWx58aMdZrO-X7KgWpq-19" value="" style="endArrow=classic;html=1;rounded=0;shape=flexArrow;endWidth=4.136289886425095;endSize=2.0897269180754225;width=2.964889466840052;strokeWidth=0.5;" parent="1" edge="1">
          <mxGeometry width="50" height="50" relative="1" as="geometry">
            <mxPoint x="226" y="209" as="sourcePoint" />
            <mxPoint x="256" y="209" as="targetPoint" />
          </mxGeometry>
        </mxCell>
        <mxCell id="mCWx58aMdZrO-X7KgWpq-20" value="" style="endArrow=classic;html=1;rounded=0;shape=flexArrow;endWidth=4.136289886425095;endSize=2.0897269180754225;width=2.964889466840052;strokeWidth=0.5;exitX=0.397;exitY=-0.067;exitDx=0;exitDy=0;exitPerimeter=0;fillColor=#f0a30a;strokeColor=#BD7000;" parent="1" edge="1">
          <mxGeometry width="50" height="50" relative="1" as="geometry">
            <mxPoint x="308" y="258.98999999999995" as="sourcePoint" />
            <mxPoint x="308" y="232" as="targetPoint" />
          </mxGeometry>
        </mxCell>
        <mxCell id="mCWx58aMdZrO-X7KgWpq-21" value="" style="endArrow=classic;html=1;rounded=0;shape=flexArrow;endWidth=4.136289886425095;endSize=2.0897269180754225;width=2.964889466840052;strokeWidth=0.5;exitX=0.397;exitY=-0.067;exitDx=0;exitDy=0;exitPerimeter=0;fillColor=#FFFFFF;strokeColor=#000000;" parent="1" edge="1">
          <mxGeometry width="50" height="50" relative="1" as="geometry">
            <mxPoint x="331" y="232.00000000000006" as="sourcePoint" />
            <mxPoint x="331" y="258.99" as="targetPoint" />
          </mxGeometry>
        </mxCell>
        <mxCell id="mCWx58aMdZrO-X7KgWpq-22" value="" style="endArrow=classic;html=1;rounded=0;shape=flexArrow;endWidth=4.136289886425095;endSize=2.0897269180754225;width=2.964889466840052;strokeWidth=0.5;exitX=0.397;exitY=-0.067;exitDx=0;exitDy=0;exitPerimeter=0;fillColor=#f0a30a;strokeColor=#BD7000;" parent="1" edge="1">
          <mxGeometry width="50" height="50" relative="1" as="geometry">
            <mxPoint x="309" y="162.00000000000006" as="sourcePoint" />
            <mxPoint x="309" y="188.99" as="targetPoint" />
          </mxGeometry>
        </mxCell>
        <mxCell id="mCWx58aMdZrO-X7KgWpq-23" value="" style="endArrow=classic;html=1;rounded=0;shape=flexArrow;endWidth=4.136289886425095;endSize=2.0897269180754225;width=2.964889466840052;strokeWidth=0.5;exitX=0.397;exitY=-0.067;exitDx=0;exitDy=0;exitPerimeter=0;" parent="1" edge="1">
          <mxGeometry width="50" height="50" relative="1" as="geometry">
            <mxPoint x="332" y="188.99000000000007" as="sourcePoint" />
            <mxPoint x="332" y="162.0000000000001" as="targetPoint" />
          </mxGeometry>
        </mxCell>
        <mxCell id="mCWx58aMdZrO-X7KgWpq-24" value="&lt;font face=&quot;Times New Roman&quot; style=&quot;font-size: 13px;&quot;&gt;D1&lt;/font&gt;" style="text;html=1;align=center;verticalAlign=middle;resizable=0;points=[];autosize=1;strokeColor=none;fillColor=none;" parent="1" vertex="1">
          <mxGeometry x="260" y="160" width="40" height="30" as="geometry" />
        </mxCell>
        <mxCell id="mCWx58aMdZrO-X7KgWpq-25" value="&lt;font face=&quot;Times New Roman&quot; style=&quot;font-size: 13px;&quot;&gt;D6&lt;/font&gt;" style="text;html=1;align=center;verticalAlign=middle;resizable=0;points=[];autosize=1;strokeColor=none;fillColor=none;" parent="1" vertex="1">
          <mxGeometry x="337" y="160" width="40" height="30" as="geometry" />
        </mxCell>
        <mxCell id="mCWx58aMdZrO-X7KgWpq-26" value="&lt;font face=&quot;Times New Roman&quot; style=&quot;font-size: 13px;&quot;&gt;D2&lt;/font&gt;" style="text;html=1;align=center;verticalAlign=middle;resizable=0;points=[];autosize=1;strokeColor=none;fillColor=none;" parent="1" vertex="1">
          <mxGeometry x="220" y="180" width="40" height="30" as="geometry" />
        </mxCell>
        <mxCell id="mCWx58aMdZrO-X7KgWpq-27" value="&lt;font face=&quot;Times New Roman&quot; style=&quot;font-size: 13px;&quot;&gt;D3&lt;/font&gt;" style="text;html=1;align=center;verticalAlign=middle;resizable=0;points=[];autosize=1;strokeColor=none;fillColor=none;" parent="1" vertex="1">
          <mxGeometry x="260" y="230" width="40" height="30" as="geometry" />
        </mxCell>
        <mxCell id="mCWx58aMdZrO-X7KgWpq-28" value="&lt;font face=&quot;Times New Roman&quot; style=&quot;font-size: 13px;&quot;&gt;D4&lt;/font&gt;" style="text;html=1;align=center;verticalAlign=middle;resizable=0;points=[];autosize=1;strokeColor=none;fillColor=none;" parent="1" vertex="1">
          <mxGeometry x="340" y="230" width="40" height="30" as="geometry" />
        </mxCell>
        <mxCell id="mCWx58aMdZrO-X7KgWpq-29" value="&lt;font face=&quot;Times New Roman&quot; style=&quot;font-size: 13px;&quot;&gt;D5&lt;/font&gt;" style="text;html=1;align=center;verticalAlign=middle;resizable=0;points=[];autosize=1;strokeColor=none;fillColor=none;" parent="1" vertex="1">
          <mxGeometry x="377" y="180" width="40" height="30" as="geometry" />
        </mxCell>
      </root>
    </mxGraphModel>
  </diagram>
</mxfile>
